<svg width="32" height="32" viewBox="0 0 32 32" fill="none" xmlns="http://www.w3.org/2000/svg">
<path d="M4.2925 16.7076L13.2925 25.7076C13.4801 25.8952 13.7346 26.0006 14 26.0006C14.2654 26.0006 14.5199 25.8952 14.7075 25.7076C14.8951 25.5199 15.0006 25.2654 15.0006 25.0001C15.0006 24.7347 14.8951 24.4802 14.7075 24.2926L7.41375 17.0001H27C27.2652 17.0001 27.5196 16.8947 27.7071 16.7072C27.8946 16.5196 28 16.2653 28 16.0001C28 15.7349 27.8946 15.4805 27.7071 15.293C27.5196 15.1054 27.2652 15.0001 27 15.0001H7.41375L14.7075 7.70757C14.8951 7.51993 15.0006 7.26543 15.0006 7.00007C15.0006 6.7347 14.8951 6.48021 14.7075 6.29257C14.5199 6.10493 14.2654 5.99951 14 5.99951C13.7346 5.99951 13.4801 6.10493 13.2925 6.29257L4.2925 15.2926C4.19952 15.3854 4.12576 15.4957 4.07544 15.6171C4.02512 15.7385 3.99921 15.8687 3.99921 16.0001C3.99921 16.1315 4.02512 16.2616 4.07544 16.383C4.12576 16.5044 4.19952 16.6147 4.2925 16.7076Z" fill="#3C1C73" fill-opacity="0.3"/>
</svg>
