<svg width="48" height="47" viewBox="0 0 48 47" fill="none" xmlns="http://www.w3.org/2000/svg">
<path d="M14.4565 45.0128C13.8871 44.7218 13.7341 44.4574 13.6781 43.6672L13.6304 42.9953L8.16386 42.952L2.6973 42.9086L2.40518 42.7002C1.86139 42.3124 1.79026 42.0045 1.78811 40.0291C1.78697 39.0003 1.8242 38.1768 1.8783 38.0334C2.01526 37.6701 2.47472 37.2349 2.82361 37.1379C3.00982 37.0862 5.21073 37.0523 8.40248 37.052L13.6738 37.0517V36.806C13.6738 36.6031 13.524 36.4302 12.8127 35.812C9.92709 33.3045 7.96198 29.8395 7.24258 25.9904C7.01393 24.7671 6.93121 22.4176 7.07285 21.1695C7.7825 14.9163 11.7704 9.61656 17.5421 7.25632C19.5056 6.45338 21.2246 6.08565 23.3576 6.01223C24.6198 5.96879 26.4564 6.07723 26.8197 6.21664C26.9198 6.25505 26.9497 6.19755 26.9497 5.96722C26.9497 5.32868 27.2156 5.04407 29.7698 2.9478C31.2897 1.70041 32.3181 0.917347 32.5164 0.856401C32.8927 0.740742 33.31 0.805175 33.6915 1.03785C34.1259 1.30285 34.2694 1.59811 34.3217 2.33412L34.3686 2.99408L39.8352 3.03747L45.3018 3.08085L45.5939 3.2892C46.1377 3.67704 46.2088 3.98493 46.211 5.96033C46.2121 6.9953 46.175 7.81172 46.1203 7.95606C45.9887 8.30342 45.7033 8.58856 45.3018 8.77388C44.9764 8.92403 44.6215 8.93419 39.64 8.93598L34.3253 8.93789V9.18357C34.3253 9.38657 34.4753 9.55963 35.189 10.1798C38.0796 12.6917 40.0222 16.1258 40.7692 20.0445C41.0273 21.3984 41.0438 24.483 40.8001 25.8148C40.1442 29.3993 38.5298 32.5078 36.0213 35.0168C32.9301 38.1086 28.979 39.8252 24.6069 39.9761C23.3469 40.0196 21.7096 39.9242 21.2126 39.7783C21.1015 39.7457 21.0605 39.8257 21.0158 40.1624C20.9809 40.4255 20.869 40.7062 20.7224 40.8983C20.4433 41.2639 16.1109 44.8295 15.6729 45.0541C15.2711 45.2601 14.9169 45.248 14.4565 45.0128ZM17.4483 41.795C18.5937 40.845 19.5227 40.0508 19.5129 40.0302C19.4983 39.9998 15.5569 36.7239 15.1678 36.4187C15.0786 36.3488 15.059 36.5101 15.0691 37.2299C15.0813 38.1028 15.0751 38.134 14.8501 38.3275L14.6186 38.5266H8.93996H3.26131V40.0017V41.4768H8.80169C12.7117 41.4768 14.4252 41.5058 14.6247 41.5754C15.0087 41.7093 15.1489 42.0779 15.1489 42.9543C15.1489 43.4938 15.174 43.6409 15.2574 43.5894C15.317 43.5525 16.303 42.7451 17.4483 41.795ZM27.0859 38.2317C33.2571 36.9317 37.9462 32.242 39.235 26.0811C39.5326 24.6587 39.608 22.5154 39.4124 21.0423C39.1547 19.1017 38.6667 17.5724 37.7289 15.7667C37.0015 14.366 36.03 13.0626 34.8158 11.8585C33.9697 11.0195 33.8428 10.9243 33.6407 10.9774C33.202 11.0926 32.6308 11.1192 32.4098 11.0348C32.287 10.9878 31.4383 10.3391 30.524 9.59319C29.4962 8.75466 28.7204 8.18715 28.4917 8.10647C26.9369 7.5579 24.009 7.32012 22.0472 7.58308C16.903 8.2726 12.5443 11.3302 10.1999 15.8938C7.26289 21.611 8.12312 28.4531 12.3909 33.3204C12.7466 33.7261 13.3015 34.289 13.6241 34.5714C14.1927 35.069 14.2193 35.0817 14.4907 34.9835C14.6448 34.9278 14.9476 34.8823 15.1637 34.8823C15.6317 34.8823 15.6941 34.9241 17.7446 36.6091C19.1527 37.7662 19.2251 37.8128 19.887 37.9888C20.541 38.1627 21.7014 38.3903 22.3509 38.472C22.5179 38.4931 23.416 38.4972 24.3466 38.4813C25.7496 38.4573 26.2175 38.4146 27.0859 38.2317ZM22.9149 36.2626C20.7407 36.0965 18.4629 35.3058 16.624 34.0788C11.6156 30.7371 9.4748 24.4951 11.3748 18.7738C12.8498 14.3322 16.5901 10.98 21.1844 9.98189C22.9039 9.60833 25.0951 9.60833 26.8147 9.98189C30.6737 10.8202 33.9926 13.3741 35.8322 16.9207C39.2206 23.4532 36.5776 31.5749 29.9871 34.8821C28.5146 35.621 26.7918 36.1237 25.3737 36.2281C24.0846 36.3231 23.7646 36.3276 22.9149 36.2626ZM26.0386 34.6529C30.211 33.9695 33.8638 30.818 35.2264 26.7258C35.655 25.4388 35.8181 24.3934 35.8154 22.9513C35.8129 21.5314 35.6578 20.5507 35.2377 19.2938C33.8392 15.1104 30.3316 12.0827 25.9953 11.3158C24.9118 11.1242 23.0872 11.1242 22.0038 11.3158C17.0442 12.193 13.1884 16.0573 12.3179 21.0229C12.1313 22.0873 12.1326 23.9268 12.3207 24.9904C12.9752 28.692 15.343 31.8909 18.6631 33.559C20.984 34.725 23.4054 35.0841 26.0386 34.6529ZM21.303 30.8975C21.0833 30.6778 21.0493 30.5791 21.0493 30.1599V29.676H20.5654C20.1462 29.676 20.0476 29.6421 19.8279 29.4224C19.5042 29.0988 19.4887 28.7124 19.7872 28.4139C19.9665 28.2346 20.0834 28.2009 20.5262 28.2009H21.0523L21.0291 25.9666L21.0059 23.7322L20.4667 23.7065C20.0064 23.6845 19.9017 23.6479 19.7509 23.4562C19.6537 23.3327 19.5742 23.125 19.5742 22.9947C19.5742 22.8644 19.6537 22.6567 19.7509 22.5332C19.9017 22.3415 20.0064 22.3049 20.4667 22.2829L21.0059 22.2571L21.0291 20.0228L21.0523 17.7885H20.5262C20.0834 17.7885 19.9665 17.7548 19.7872 17.5755C19.4887 17.2769 19.5042 16.8906 19.8279 16.567C20.0476 16.3473 20.1462 16.3133 20.5654 16.3133H21.0493V15.8294C21.0493 15.4103 21.0833 15.3116 21.303 15.0919C21.6321 14.7628 21.9417 14.7628 22.2708 15.0919C22.4905 15.3116 22.5244 15.4103 22.5244 15.8294V16.3134H23.6524H24.7805V15.8432C24.7805 15.5846 24.8047 15.3099 24.8344 15.2326C24.9202 15.009 25.3665 14.8198 25.6574 14.8837C26.006 14.9602 26.1863 15.269 26.2476 15.8943L26.299 16.4183L26.6874 16.5493C27.2175 16.728 27.8873 17.1696 28.2424 17.5743C28.623 18.0082 29.0065 18.8322 29.1242 19.469C29.3146 20.4987 28.9034 21.7973 28.1381 22.583L27.7362 22.9957L28.1305 23.3899C28.9031 24.1626 29.3101 25.4482 29.1227 26.5244C28.8847 27.891 27.9898 28.9812 26.7477 29.4176L26.299 29.5753L26.2476 30.0972C26.1863 30.7206 26.0056 31.0293 25.6574 31.1057C25.3665 31.1696 24.9202 30.9804 24.8344 30.7568C24.8047 30.6795 24.7805 30.4048 24.7805 30.1462V29.6761H23.6524H22.5244V30.16C22.5244 30.5791 22.4905 30.6778 22.2708 30.8975C22.1179 31.0504 21.9257 31.1512 21.7869 31.1512C21.6481 31.1512 21.4559 31.0504 21.303 30.8975ZM26.1351 28.0727C27.4534 27.6812 28.0872 26.1297 27.4251 24.9149C27.1515 24.4129 26.8355 24.1274 26.2943 23.8931C26.0221 23.7752 25.6006 23.737 24.2382 23.7067L22.5244 23.6686V25.9348V28.2009H24.1139C25.2634 28.2009 25.823 28.1654 26.1351 28.0727ZM26.2943 22.0963C26.8355 21.862 27.1515 21.5765 27.4251 21.0745C27.9203 20.1659 27.7102 19.0235 26.9242 18.3507C26.3677 17.8744 25.9381 17.7884 24.1139 17.7884H22.5244V20.0546V22.3208L24.2382 22.2826C25.6006 22.2523 26.0221 22.2141 26.2943 22.0963ZM32.9298 8.74649C32.9178 7.8877 32.9244 7.85501 33.1489 7.66186L33.3805 7.4627H39.0591H44.7378V5.9876V4.51249H39.1974C35.376 4.51249 33.5716 4.48274 33.3819 4.4166C32.9961 4.28211 32.9057 4.06429 32.8529 3.14251L32.8068 2.33653L30.6548 4.11331C29.4711 5.09054 28.495 5.90769 28.4855 5.92921C28.4697 5.96505 32.8579 9.63197 32.9166 9.63197C32.9307 9.63197 32.9367 9.23351 32.9298 8.74649Z" fill="url(#paint0_linear_657_108)"/>
<defs>
<linearGradient id="paint0_linear_657_108" x1="23.9995" y1="0.800293" x2="23.9995" y2="45.1995" gradientUnits="userSpaceOnUse">
<stop stop-color="#5167EE"/>
<stop offset="1" stop-color="#925DEF"/>
</linearGradient>
</defs>
</svg>
