<svg width="140" height="99" viewBox="0 0 140 99" fill="none" xmlns="http://www.w3.org/2000/svg">
<path d="M69.5874 89.121C87.5553 89.121 102.121 82.9195 102.121 75.2696C102.121 67.6197 87.5553 61.4182 69.5874 61.4182C51.6196 61.4182 37.0537 67.6197 37.0537 75.2696C37.0537 82.9195 51.6196 89.121 69.5874 89.121Z" fill="url(#paint0_linear_335_341)"/>
<path d="M92.2825 31.7038C103.925 50.8877 105.396 75.0719 94.044 85.0559C92.3812 86.5182 86.1134 88.2419 85.4556 88.4061C74.4643 91.1516 60.5494 83.3069 51.1736 67.8568C39.531 48.6736 39.2954 25.0288 50.6472 15.045C51.9481 13.9009 53.3446 12.9858 54.8154 12.2912C55.8182 11.8176 60.2803 10.1557 61.3453 9.8843C72.3489 7.08067 82.8837 16.2167 92.2825 31.7038Z" fill="url(#paint1_linear_335_341)"/>
<path d="M92.8398 31.5156C104.561 50.7793 108.016 73.8932 96.6698 83.8834C95.008 85.3466 86.8226 88.2068 86.164 88.3702C75.1585 91.1015 61.1929 83.2056 51.7534 67.6913C40.0318 48.4283 39.7269 24.7138 51.0725 14.7237C52.3726 13.5789 53.7694 12.664 55.2411 11.9703C56.2445 11.4974 61.4347 9.28979 62.5011 9.01981C73.5187 6.23022 83.3772 15.9641 92.8398 31.5156H92.8398Z" fill="url(#paint2_linear_335_341)"/>
<path d="M98.0862 29.4209C109.808 48.6846 110.113 72.3992 98.7665 82.389C87.4209 92.3784 68.7211 84.8612 56.9997 65.5966C45.2778 46.3332 44.973 22.6186 56.3185 12.6285C67.6642 2.63906 86.3646 10.1565 98.0862 29.4209Z" fill="url(#paint3_linear_335_341)"/>
<path d="M98.3818 29.6167C109.845 48.4554 110.143 71.6469 99.0471 81.4163C87.9517 91.1853 69.6645 83.8339 58.2017 64.9943C46.7384 46.1558 46.4402 22.9643 57.5355 13.1946C68.6308 3.42551 86.9188 10.7771 98.3818 29.6166V29.6167Z" fill="url(#paint4_linear_335_341)"/>
<path d="M97.0507 31.2873C107.672 48.7103 107.991 70.141 97.7624 79.154C87.5346 88.1666 70.6332 81.3496 60.0124 63.9258C49.3911 46.5029 49.0722 25.0723 59.2999 16.0591C69.5277 7.04639 86.4296 13.8636 97.0507 31.2874L97.0507 31.2873Z" fill="url(#paint5_linear_335_341)"/>
<mask id="mask0_335_341" style="mask-type:luminance" maskUnits="userSpaceOnUse" x="51" y="12" width="55" height="72">
<path d="M97.0507 31.2873C107.672 48.7103 107.991 70.141 97.7624 79.154C87.5346 88.1666 70.6332 81.3496 60.0124 63.9258C49.3911 46.5029 49.0722 25.0723 59.2999 16.0591C69.5277 7.04639 86.4296 13.8636 97.0507 31.2874L97.0507 31.2873Z" fill="white"/>
</mask>
<g mask="url(#mask0_335_341)">
<path d="M95.0539 32.2792C105.725 49.6675 106.202 70.9891 96.1185 79.9021C86.0354 88.8148 69.2105 81.945 58.5393 64.5559C47.8677 47.1677 47.3909 25.8463 57.4739 16.9329C67.5571 8.0201 84.3826 14.8903 95.0539 32.2792Z" fill="url(#paint6_linear_335_341)"/>
</g>
<path d="M91.5799 35.1649C99.5815 48.2886 99.8248 64.4279 92.1238 71.2141C84.4231 78.0014 71.6945 72.8656 63.6933 59.7422C55.6917 46.6191 55.4487 30.4797 63.1494 23.6935C70.8499 16.9064 83.5788 22.0421 91.5799 35.1649Z" fill="url(#paint7_linear_335_341)"/>
<path d="M92.6211 35.1096C100.366 47.8386 100.568 63.5071 93.0709 70.1073C85.5745 76.7084 73.2193 71.7416 65.4744 59.0129C57.7291 46.2844 57.5282 30.6158 65.0247 24.0157C72.5208 17.4147 84.8763 22.3814 92.6211 35.1096Z" fill="url(#paint8_linear_335_341)"/>
<path d="M83.861 37.3106C82.3176 36.983 81.6833 37.9948 81.6833 37.9948C81.6833 37.9948 81.3769 34.2614 78.0333 31.3108C74.7454 28.4059 72.488 30.4208 71.4837 32.3421L68.5537 27.0255L67.3778 27.8503L66.3105 30.3645L70.3925 34.8269C70.39 34.8328 70.3886 34.8357 70.3886 34.8357L69.6696 36.5251L66.7776 31.2472L65.591 32.0606L64.5254 34.5746L68.6051 39.0434L66.6285 43.6997L69.6975 47.0613C69.6975 47.0613 70.5694 46.8888 70.8404 46.2494C70.9294 46.039 70.2663 45.7195 70.3944 45.4163C70.9151 44.1903 71.4772 44.6653 71.9989 45.244C72.5189 45.8101 82.28 56.4989 82.9818 57.2619C83.6752 58.0258 83.8058 58.6875 83.6822 58.9751C83.5619 59.2642 82.9315 60.7505 82.9315 60.7505L85.8879 64.8416C85.8879 64.8416 86.7899 64.5777 87.0522 63.9617C87.4232 63.0905 87.2573 61.6241 87.8813 60.1511L92.0012 64.6683L93.1635 63.7869L93.0675 62.1522L88.9479 57.6334C89.1958 57.0507 89.4375 56.4776 89.6683 55.9425L93.7929 60.2803L94.9798 59.5171L94.8572 57.9419L90.7324 53.4261C90.8012 53.268 90.8621 53.1296 90.911 53.0117C91.8388 50.8191 91.899 46.8239 90.3436 43.7523C88.7871 40.6798 85.9791 37.7705 83.8611 37.3106H83.861ZM73.5813 39.7437C73.5813 39.7437 74.0776 38.1405 74.7374 37.3072C75.5191 36.327 76.7141 36.5118 78.0313 38.3892C79.2301 40.0923 78.9859 41.8909 78.5823 42.8567C78.1788 43.8154 77.8989 44.4871 77.8989 44.4871L73.5813 39.7437ZM86.1394 46.0654C87.3849 47.8799 87.0714 49.9345 86.604 51.0568C86.142 52.1735 85.8142 52.9527 85.8142 52.9527L81.2639 47.9844C81.2639 47.9844 81.8461 46.1305 82.587 45.1322C83.459 43.9575 84.7583 44.067 86.1394 46.0654Z" fill="url(#paint9_linear_335_341)"/>
<path d="M85.1186 36.4987C83.5692 36.1718 82.9315 37.1884 82.9315 37.1884C82.9315 37.1884 82.626 33.4389 79.271 30.4797C75.9715 27.5658 73.7044 29.5927 72.6934 31.5222L68.5746 27.0171L67.5018 29.5439L71.598 34.0208C71.5955 34.0275 71.5938 34.0299 71.5938 34.0299L70.87 35.7263L66.778 31.2471L65.7061 33.7736L69.8 38.257L67.8121 42.9358L70.891 46.3081C70.891 46.3081 71.0715 45.8875 71.5922 44.6553C72.1161 43.4246 72.6802 43.8997 73.2038 44.4807C73.7251 45.0489 83.5198 55.7734 84.2233 56.5388C84.9198 57.3057 85.0493 57.9693 84.925 58.2576C84.8048 58.5486 84.17 60.0416 84.17 60.0416L87.1369 64.1484C87.1369 64.1484 88.069 61.9618 89.1416 59.4345L93.2745 63.9662L94.3471 61.4383L90.2131 56.905C90.4626 56.3192 90.7057 55.7432 90.9377 55.2056L95.076 59.5571L96.146 57.2072L92.0082 52.6772C92.0765 52.5175 92.1383 52.3794 92.1877 52.2604C93.1201 50.0576 93.183 46.0444 91.6229 42.9612C90.0633 39.878 87.2459 36.9588 85.1186 36.4987ZM74.7956 38.9543C74.7956 38.9543 75.2953 37.3442 75.9581 36.5065C76.7432 35.5207 77.9431 35.7055 79.2644 37.589C80.4679 39.299 80.2219 41.1064 79.8151 42.0754C79.4093 43.0392 79.1279 43.714 79.1279 43.714L74.7955 38.9543L74.7956 38.9543ZM87.4007 45.2898C88.6502 47.11 88.3344 49.1746 87.8646 50.3028C87.3996 51.424 87.0699 52.2071 87.0699 52.2071L82.5042 47.2226C82.5042 47.2226 83.0905 45.3598 83.8348 44.3566C84.7116 43.1763 86.016 43.2849 87.4007 45.2898Z" fill="url(#paint10_linear_335_341)"/>
<path d="M84.978 36.6472C83.4905 36.3285 82.8816 37.3019 82.8816 37.3019C82.8816 37.3019 82.5812 33.7051 79.3563 30.8566C76.1847 28.0521 74.013 29.988 72.9077 32.0531L68.9471 27.7201L68.0613 29.9199L71.9983 34.2252C71.9965 34.231 71.995 34.2339 71.995 34.2339L71.0347 36.2224L67.0995 31.9139L66.3457 33.9692L70.2818 38.2808L68.3833 42.7605L70.9442 45.5661C70.9442 45.5661 71.0767 45.2467 71.5746 44.0685C72.0751 42.8896 73.0563 43.7015 73.5588 44.2587C74.0604 44.8055 83.4792 55.1202 84.1554 55.8561C84.8248 56.5936 85.4884 57.7268 85.3688 58.0022C85.2546 58.2817 84.7761 59.8536 84.7761 59.8536L86.9655 63.1618C86.9655 63.1618 87.856 61.0691 88.8807 58.6498L92.8543 63.0079L93.619 60.8421L89.6441 56.4819C90.1417 55.6663 90.3745 55.1151 90.596 54.6008L94.5751 58.7869L95.4274 56.8645L91.4481 52.5082C91.6845 52.0282 91.7433 51.8954 91.7906 51.7825C92.6812 49.673 92.7338 45.8255 91.232 42.865C89.7288 39.9032 87.0199 37.0952 84.9778 36.6472H84.978ZM74.5142 39.1321C74.5142 39.1321 75.0872 36.9113 75.7214 36.1101C76.4731 35.1675 77.5505 35.0696 78.9952 36.7269C80.6804 38.6604 80.6762 40.7891 80.3077 41.7325C79.8964 42.7857 79.32 44.4128 79.32 44.4128L74.5142 39.1321ZM87.7586 45.0903C89.0108 46.8022 88.897 49.0851 88.4585 50.1725C87.9387 51.4618 87.1541 53.1213 87.1541 53.1213L81.7943 47.1109C81.7943 47.1109 82.9812 44.5885 83.6939 43.6293C84.532 42.4999 86.0654 42.7756 87.7586 45.0903Z" fill="url(#paint11_linear_335_341)"/>
<path d="M64.4922 34.5796L65.6831 33.7589L66.7559 31.2322L65.5594 32.0654L64.4922 34.5796Z" fill="url(#paint12_linear_335_341)"/>
<path d="M66.6279 43.6998L67.8113 42.9358L69.7991 38.2571L68.6046 39.0435L66.6279 43.6998Z" fill="url(#paint13_linear_335_341)"/>
<path d="M70.292 35.0603L70.8687 35.7263L71.5967 34.0208L70.3915 34.8269L70.292 35.0603Z" fill="url(#paint14_linear_335_341)"/>
<path d="M78.8319 40.2633L80.0644 39.4556C80.0644 39.4556 80.3032 40.6228 80.0183 41.4452C79.7333 42.2677 79.1271 43.7139 79.1271 43.7139L78.5127 43.021C78.5127 43.021 79.0964 41.8701 78.832 40.2633L78.8319 40.2633Z" fill="url(#paint15_linear_335_341)"/>
<path d="M87.0104 48.7199L88.2763 47.9202C88.2763 47.9202 88.2415 49.1199 87.9565 49.9423C87.6715 50.7648 87.0653 52.211 87.0653 52.211L86.4248 51.4888C86.4248 51.4888 87.15 50.0128 87.0104 48.7199Z" fill="url(#paint16_linear_335_341)"/>
<path d="M82.9307 60.7506L84.1687 60.0416L84.9548 58.1475L83.6814 58.9752L82.9307 60.7506Z" fill="url(#paint17_linear_335_341)"/>
<path d="M72.3223 31.1175L72.6923 31.5223C72.6923 31.5223 73.3251 30.4407 73.7404 30.0776C73.7404 30.0776 73.0314 30.3232 72.3223 31.1175H72.3223Z" fill="url(#paint18_linear_335_341)"/>
<path d="M66.3096 30.3645L67.5005 29.5439L68.5732 27.0171L67.3768 27.8503L66.3096 30.3645Z" fill="url(#paint19_linear_335_341)"/>
<defs>
<linearGradient id="paint0_linear_335_341" x1="46.3698" y1="62.6577" x2="94.298" y2="88.7803" gradientUnits="userSpaceOnUse">
<stop stop-color="white"/>
<stop offset="0.746" stop-color="#BDB2B9"/>
<stop offset="1" stop-color="#A698A1"/>
</linearGradient>
<linearGradient id="paint1_linear_335_341" x1="65.1151" y1="87.2647" x2="78.0981" y2="20.4064" gradientUnits="userSpaceOnUse">
<stop stop-color="#FFDB4C"/>
<stop offset="0.398" stop-color="#FEEF98"/>
<stop offset="0.468" stop-color="#FEF3A6"/>
<stop offset="0.844" stop-color="#E0AA41"/>
<stop offset="1" stop-color="#D48B16"/>
</linearGradient>
<linearGradient id="paint2_linear_335_341" x1="56.1847" y1="12.6797" x2="88.4774" y2="86.5048" gradientUnits="userSpaceOnUse">
<stop stop-color="#C56B17"/>
<stop offset="0.086" stop-color="#FFDB4C"/>
<stop offset="0.148" stop-color="#C88E28"/>
<stop offset="0.211" stop-color="#903F04"/>
<stop offset="0.297" stop-color="#9A4C0D"/>
<stop offset="0.5" stop-color="#F4D05D"/>
<stop offset="0.668" stop-color="#D48B16"/>
<stop offset="0.842" stop-color="#7D3400"/>
<stop offset="1" stop-color="#A64A0F"/>
</linearGradient>
<linearGradient id="paint3_linear_335_341" x1="92.1628" y1="21.8735" x2="57.028" y2="83.6895" gradientUnits="userSpaceOnUse">
<stop stop-color="#FFDB4C"/>
<stop offset="0.301" stop-color="#FDEC97"/>
<stop offset="0.468" stop-color="#FDF6C4"/>
<stop offset="0.78" stop-color="#E5B85F"/>
<stop offset="1" stop-color="#D48B16"/>
</linearGradient>
<linearGradient id="paint4_linear_335_341" x1="73.6506" y1="10.5698" x2="77.9145" y2="44.4323" gradientUnits="userSpaceOnUse">
<stop stop-color="#FFD88A"/>
<stop offset="0.531" stop-color="#FFF1D7"/>
<stop offset="1" stop-color="#FFD276"/>
</linearGradient>
<linearGradient id="paint5_linear_335_341" x1="63.5052" y1="13.3765" x2="93.4704" y2="81.8808" gradientUnits="userSpaceOnUse">
<stop stop-color="#8C4201"/>
<stop offset="0.176" stop-color="#D48B16"/>
<stop offset="0.65" stop-color="#CA7C16"/>
<stop offset="1" stop-color="#843800"/>
</linearGradient>
<linearGradient id="paint6_linear_335_341" x1="61.7834" y1="14.2178" x2="91.7222" y2="82.6616" gradientUnits="userSpaceOnUse">
<stop stop-color="#812619"/>
<stop offset="1" stop-color="#AC6B2B"/>
</linearGradient>
<linearGradient id="paint7_linear_335_341" x1="89.2167" y1="26.8353" x2="60.7919" y2="76.7727" gradientUnits="userSpaceOnUse">
<stop stop-color="#C56B17"/>
<stop offset="0.193" stop-color="#FFDB4C"/>
<stop offset="0.388" stop-color="#F9DB69"/>
<stop offset="0.743" stop-color="#D48B16"/>
<stop offset="1" stop-color="#A64A0F"/>
</linearGradient>
<linearGradient id="paint8_linear_335_341" x1="80.6249" y1="76.1153" x2="77.9546" y2="26.8071" gradientUnits="userSpaceOnUse">
<stop stop-color="#FFDB4C"/>
<stop offset="0.163" stop-color="#F9DB69"/>
<stop offset="1" stop-color="#D07119"/>
</linearGradient>
<linearGradient id="paint9_linear_335_341" x1="112.914" y1="39.4649" x2="132.881" y2="37.4702" gradientUnits="userSpaceOnUse">
<stop stop-color="#952F0E"/>
<stop offset="0.33" stop-color="#A64710"/>
<stop offset="1" stop-color="#D38417"/>
</linearGradient>
<linearGradient id="paint10_linear_335_341" x1="85.5655" y1="20.537" x2="84.6866" y2="49.2613" gradientUnits="userSpaceOnUse">
<stop stop-color="#FFDB4C"/>
<stop offset="0.398" stop-color="#FEEF98"/>
<stop offset="0.468" stop-color="#FEF3A6"/>
<stop offset="0.844" stop-color="#E0AA41"/>
<stop offset="1" stop-color="#D48B16"/>
</linearGradient>
<linearGradient id="paint11_linear_335_341" x1="85.3176" y1="27.2448" x2="84.4715" y2="54.4846" gradientUnits="userSpaceOnUse">
<stop offset="0.082" stop-color="#FEBD36"/>
<stop offset="0.444" stop-color="#FED581"/>
<stop offset="0.65" stop-color="#FFE4AF"/>
<stop offset="1" stop-color="#FEC030"/>
</linearGradient>
<linearGradient id="paint12_linear_335_341" x1="67.7332" y1="30.725" x2="68.0255" y2="31.4336" gradientUnits="userSpaceOnUse">
<stop stop-color="#AA5C11"/>
<stop offset="1" stop-color="#FFC709"/>
</linearGradient>
<linearGradient id="paint13_linear_335_341" x1="70.9533" y1="38.0008" x2="71.4527" y2="39.2114" gradientUnits="userSpaceOnUse">
<stop stop-color="#AA5C11"/>
<stop offset="1" stop-color="#FFC709"/>
</linearGradient>
<linearGradient id="paint14_linear_335_341" x1="73.681" y1="32.4402" x2="73.85" y2="32.8501" gradientUnits="userSpaceOnUse">
<stop stop-color="#AA5C11"/>
<stop offset="1" stop-color="#FFC709"/>
</linearGradient>
<linearGradient id="paint15_linear_335_341" x1="82.8922" y1="38.0607" x2="83.356" y2="39.1851" gradientUnits="userSpaceOnUse">
<stop stop-color="#993C0F"/>
<stop offset="0.383" stop-color="#AC5411"/>
<stop offset="1" stop-color="#D38417"/>
</linearGradient>
<linearGradient id="paint16_linear_335_341" x1="92.0229" y1="45.5992" x2="92.4776" y2="46.7016" gradientUnits="userSpaceOnUse">
<stop stop-color="#993C0F"/>
<stop offset="0.383" stop-color="#AC5411"/>
<stop offset="1" stop-color="#D38417"/>
</linearGradient>
<linearGradient id="paint17_linear_335_341" x1="88.9736" y1="54.7241" x2="89.1884" y2="55.2449" gradientUnits="userSpaceOnUse">
<stop stop-color="#AA5C11"/>
<stop offset="1" stop-color="#FFC709"/>
</linearGradient>
<linearGradient id="paint18_linear_335_341" x1="75.5871" y1="28.5192" x2="75.71" y2="28.817" gradientUnits="userSpaceOnUse">
<stop stop-color="#AA5C11"/>
<stop offset="1" stop-color="#FFC709"/>
</linearGradient>
<linearGradient id="paint19_linear_335_341" x1="69.3786" y1="26.6679" x2="69.6709" y2="27.3765" gradientUnits="userSpaceOnUse">
<stop stop-color="#AA5C11"/>
<stop offset="1" stop-color="#FFC709"/>
</linearGradient>
</defs>
</svg>
