<svg width="48" height="49" viewBox="0 0 48 49" fill="none" xmlns="http://www.w3.org/2000/svg">
<path d="M11.0349 48.0033C10.9304 47.9406 8.40473 45.4331 5.42241 42.4312L0 36.9731L0.00226793 36.5603L0.00453586 36.1476L2.5151 33.5999C5.2944 30.7796 5.45487 30.6606 6.58806 30.5795L7.23792 30.533L7.7639 29.7239C8.44468 28.6766 9.8643 27.2585 10.917 26.5742C12.9654 25.2426 15.094 24.6417 17.7648 24.6411C19.3719 24.6407 20.4481 24.8045 21.6514 25.2324L22.4972 25.5332L28.2741 25.5801L34.051 25.6271L34.5841 25.877C34.8773 26.0144 35.3099 26.3046 35.5455 26.5217L35.9738 26.9165L38.0161 24.8158C39.1394 23.6605 40.4816 22.2799 40.9987 21.7479C41.5158 21.2158 42.1297 20.6592 42.3629 20.5109C44.217 19.3314 46.7944 20.0729 47.7324 22.0558C47.9767 22.5722 47.9999 22.7122 48 23.6702C48.0001 24.8186 47.8933 25.1971 47.3682 25.9089C47.2158 26.1155 45.1999 28.5461 42.8885 31.31C38.5689 36.4753 38.1082 36.9616 36.8906 37.6414C36.076 38.0962 34.7701 38.5094 33.7692 38.6291C33.2411 38.6923 30.4536 38.7303 26.3417 38.7305C20.6102 38.7307 19.7038 38.7498 19.3273 38.8781C19.0559 38.9706 18.6161 39.2727 18.1461 39.6895L17.3974 40.3536L17.447 41.0774C17.5394 42.4253 17.5155 42.4626 14.8056 45.1998C13.508 46.5104 12.2815 47.7045 12.08 47.8534C11.6912 48.1407 11.3462 48.1902 11.0349 48.0033ZM13.5944 43.7772L15.5929 41.7787V41.3606V40.9425L11.3837 36.7303C7.37672 32.7204 7.15534 32.5155 6.77503 32.4645L6.37554 32.4109L4.29149 34.4896L2.20743 36.5682L6.8098 41.172C9.3411 43.7041 11.4535 45.7757 11.504 45.7757C11.5546 45.7757 12.4952 44.8764 13.5944 43.7772ZM17.7488 37.5907C17.9787 37.4424 18.4014 37.2262 18.6881 37.1101C19.2088 36.8993 19.2162 36.899 26.5361 36.8477C34.7147 36.7903 34.2717 36.8261 35.7466 36.1043C36.1627 35.9007 36.7043 35.557 36.9502 35.3406C37.492 34.8637 45.8441 24.8979 46.0731 24.4551C46.1924 24.2244 46.2251 23.9848 46.1973 23.5469C46.1555 22.8916 46.012 22.6318 45.4327 22.1629C44.9581 21.7788 44.1585 21.7089 43.5667 21.9998C43.2845 22.1385 42.201 23.1916 39.9808 25.4852L36.7992 28.7718L36.7709 29.4069C36.6866 31.2946 35.3326 32.7658 33.4571 33.0077C32.553 33.1243 25.5809 33.1154 25.1549 32.9971C24.4129 32.791 24.1868 31.9128 24.7508 31.4276L24.9967 31.2161H29.036C31.8039 31.2161 33.2123 31.1816 33.5108 31.1064C34.0992 30.9583 34.6754 30.3809 34.8472 29.7673C35.079 28.9393 34.6776 28.0481 33.881 27.6223C33.4883 27.4124 33.4702 27.4117 27.6633 27.3624C21.8758 27.3133 21.8363 27.3117 21.3346 27.1C19.6696 26.3976 16.9703 26.2928 14.8459 26.8481C13.7709 27.1291 12.2984 27.8344 11.4599 28.4699C10.6723 29.0668 9.85323 29.9548 9.27803 30.8356L8.82106 31.5353L12.505 35.2202L16.189 38.905L16.7598 38.3827C17.0738 38.0954 17.5188 37.739 17.7488 37.5907ZM21.135 32.8406C20.6139 32.6501 20.3771 32.0665 20.6164 31.5623C20.8965 30.972 21.6222 30.8435 22.0815 31.3028C22.7672 31.9885 22.0392 33.1711 21.135 32.8406ZM26.1448 20.4626C24.1478 20.1002 22.3644 19.1747 20.8371 17.708C19.4585 16.3841 18.4707 14.7059 17.9665 12.8313C17.7443 12.0049 17.7195 11.7481 17.7192 10.269C17.719 8.77214 17.7418 8.54121 17.9746 7.68585C18.1152 7.16922 18.4385 6.31782 18.693 5.79385C20.0453 3.00998 22.4377 1.07035 25.5429 0.240373C26.3354 0.0285481 26.6262 0 27.9921 0C29.3579 0 29.6488 0.02853 30.4413 0.240373C32.3853 0.759994 33.9542 1.64781 35.2798 2.97845C37.3858 5.09248 38.4172 7.72957 38.2965 10.6917C38.1851 13.4283 37.1103 15.8226 35.1471 17.708C33.593 19.2004 31.8324 20.1058 29.788 20.4638C28.837 20.6303 27.0662 20.6299 26.1448 20.4626ZM29.6042 18.5882C31.9825 18.1232 33.9913 16.7086 35.2574 14.607C38.1418 9.81923 35.5668 3.55763 30.1056 2.07944C29.0297 1.78823 26.9544 1.78823 25.8786 2.07944C24.1754 2.54044 22.4619 3.6562 21.3875 5.00389C20.7496 5.80398 20.0197 7.25919 19.7595 8.24945C19.4959 9.2526 19.517 11.47 19.7996 12.4566C20.7132 15.6462 23.2877 18.0331 26.4422 18.6153C27.1767 18.7509 28.8454 18.7366 29.6042 18.5882ZM27.3111 16.7429C27.0164 16.5712 26.8649 16.1324 26.8649 15.4502C26.8649 14.8413 26.8501 14.7945 26.6406 14.7419C26.3415 14.6668 25.4715 14.0063 25.1783 13.6317C24.7174 13.0428 24.9916 12.2257 25.6943 12.0938C26.0449 12.0281 26.4222 12.1951 26.771 12.5704C27.5194 13.3757 28.5873 13.2151 28.713 12.2783C28.7574 11.9468 28.7269 11.8504 28.4958 11.593C28.268 11.3392 28.1295 11.2798 27.5887 11.2037C26.5231 11.0539 25.8 10.5731 25.31 9.6884C25.0677 9.2511 25.0334 9.09505 25.0346 8.43732C25.0355 7.86803 25.0853 7.57838 25.2394 7.24253C25.4709 6.73792 26.1516 6.03288 26.5777 5.8564C26.8618 5.73871 26.8649 5.72987 26.8649 5.03494C26.8649 4.36126 26.878 4.31933 27.1843 4.01307C27.6176 3.57971 27.9908 3.57971 28.4242 4.01307C28.7298 4.31874 28.7436 4.36227 28.7436 5.02761V5.72279L29.1627 5.92645C29.7375 6.20571 30.3155 6.74825 30.3876 7.07611C30.465 7.42889 30.2181 7.95457 29.9088 8.09554C29.498 8.28271 29.1724 8.21984 28.7176 7.86554C28.4483 7.65574 28.1422 7.50942 27.9064 7.47779C27.5665 7.43219 27.4937 7.46096 27.1963 7.75838C26.8111 8.14356 26.7704 8.46912 27.0502 8.92795C27.2397 9.23868 27.3278 9.27564 28.129 9.3802C29.0936 9.50608 29.9774 10.1469 30.372 11.0065C30.6615 11.6372 30.6547 12.79 30.3582 13.3496C30.0525 13.9265 29.5614 14.4375 29.1226 14.6354L28.7436 14.8063V15.4543C28.7436 16.1473 28.5872 16.5827 28.2791 16.7476C28.0499 16.8703 27.5254 16.8677 27.3111 16.7429Z" fill="url(#paint0_linear_657_92)"/>
<defs>
<linearGradient id="paint0_linear_657_92" x1="24" y1="0" x2="24" y2="48.114" gradientUnits="userSpaceOnUse">
<stop stop-color="#5167EE"/>
<stop offset="1" stop-color="#925DEF"/>
</linearGradient>
</defs>
</svg>
