<svg width="46" height="46" viewBox="0 0 46 46" fill="none" xmlns="http://www.w3.org/2000/svg">
<g clip-path="url(#clip0_657_20)">
<path d="M29.9273 45.9461C24.4127 45.2791 19.7545 41.5213 17.9216 36.2606C17.3442 34.6033 17.19 33.6327 17.1889 31.6478C17.1889 30.5151 17.2319 29.6775 17.3115 29.2828C17.3794 28.9466 17.4126 28.6493 17.3852 28.6219C17.3579 28.5946 17.12 28.6215 16.8566 28.6817C16.1511 28.8429 13.5468 28.9007 12.5932 28.7763C6.92679 28.037 2.10898 23.9202 0.533776 18.4714C0.113264 17.0169 0.00129448 16.1678 0 14.424C0 12.6216 0.167262 11.5008 0.671404 9.95966C2.78252 3.5057 9.21187 -0.649242 15.9537 0.0835145C19.2958 0.446768 22.1532 1.82903 24.5746 4.25383C26.6967 6.37895 27.9662 8.71547 28.5914 11.6468C28.7688 12.4782 28.8002 12.8888 28.801 14.3791C28.801 15.4451 28.7562 16.3751 28.685 16.7506C28.6206 17.0903 28.5874 17.3876 28.6113 17.4114C28.6348 17.4352 28.87 17.4054 29.1334 17.3452C29.839 17.1839 32.4432 17.1261 33.3968 17.2505C36.6037 17.6689 39.5502 19.1347 41.8364 21.449C43.9548 23.5933 45.283 26.1566 45.8395 29.1744C46.0729 30.4399 46.048 32.9367 45.7891 34.2341C44.593 40.228 40.0308 44.7362 34.0662 45.8184C33.137 45.987 30.8489 46.0576 29.9273 45.9461ZM34.1588 43.0353C36.3607 42.53 38.281 41.4682 39.8774 39.8735C41.5326 38.2199 42.6132 36.1994 43.1248 33.8016C43.3511 32.7409 43.3546 30.4541 43.1318 29.3992C42.4537 26.1925 40.6914 23.5647 38.0334 21.7969C35.1317 19.8671 31.5417 19.3499 28.1269 20.3697C27.0474 20.6921 25.5151 21.4677 24.609 22.1503C22.2543 23.9243 20.6732 26.409 20.0536 29.3093C19.8235 30.3861 19.8263 32.8282 20.0586 33.8963C21.1407 38.8674 25.0887 42.5522 30.0746 43.2446C31.0905 43.3857 33.0752 43.2839 34.1588 43.0353ZM27.3312 38.7068C26.6559 38.1391 26.6202 37.6418 27.1715 36.4818C27.5846 35.6125 28.0629 34.2123 28.17 33.559L28.2326 33.1768L27.662 33.1766C26.6542 33.1763 26.0561 32.6739 26.0561 31.8276C26.0561 30.9699 26.6523 30.4789 27.6941 30.4786L28.2969 30.4785L28.2436 29.2339C28.1962 28.126 28.2113 27.9199 28.3826 27.3568C28.8895 25.6898 30.3047 24.5194 32.1447 24.2455C33.3621 24.0642 34.7084 24.483 35.6067 25.3225C36.1688 25.8477 36.3195 26.126 36.3195 26.6382C36.3195 27.6805 35.0497 28.3346 34.2611 27.6986C33.535 27.113 33.3003 26.9746 32.9422 26.9209C32.1687 26.805 31.2707 27.3141 31.0017 28.0209C30.9034 28.2792 30.8951 28.8347 30.9753 29.7829L31.0329 30.4636L32.0495 30.4935C33.1459 30.5258 33.343 30.6005 33.743 31.1357C33.9898 31.466 33.9898 32.1892 33.743 32.5194C33.3452 33.0516 33.1447 33.1283 32.0244 33.1767L30.9832 33.2217L30.7804 34.211C30.6689 34.7552 30.5326 35.3143 30.4776 35.4536C30.4226 35.5928 30.3776 35.7154 30.3776 35.726C30.3776 35.7366 30.919 35.7292 31.5808 35.7101C33.4836 35.6545 36.0266 36.0899 36.5963 36.5689C37.2922 37.1538 37.3132 38.0311 36.6462 38.6535C36.3213 38.9567 35.7257 38.9945 34.8608 38.7668C33.1748 38.323 31.2506 38.2868 29.5673 38.6673C29.0969 38.7736 28.4669 38.8811 28.1673 38.9061C27.6717 38.9475 27.5963 38.9296 27.3312 38.7068ZM17.143 25.8621C18.4563 25.52 18.4067 25.5549 18.9498 24.5902C20.2619 22.2597 22.235 20.2761 24.5018 19.0089C24.8862 18.794 25.2727 18.5649 25.3606 18.4998C25.4619 18.4249 25.6215 17.9855 25.7959 17.3022C26.155 15.8951 26.244 14.0085 26.0164 12.6254C25.3056 8.3049 22.2431 4.68084 18.1524 3.31936C16.7704 2.85941 15.9776 2.73622 14.3971 2.73585C13.2211 2.73559 12.7829 2.77387 12.0113 2.94419C9.72216 3.44946 7.74036 4.52726 6.11536 6.15061C4.48902 7.77537 3.40755 9.761 2.90743 12.0406C2.63661 13.2751 2.61225 15.4584 2.85625 16.6276C3.62779 20.3248 5.8457 23.239 9.15505 24.9041C11.1129 25.8891 12.4115 26.1735 14.7122 26.1209C16.0195 26.091 16.4333 26.047 17.143 25.8621ZM11.291 44.4164C8.42313 44.0227 5.97856 42.1423 4.84897 39.4613C4.44958 38.5133 4.26217 37.54 4.20535 36.119L4.15218 34.789L3.37459 35.5491C2.4767 36.4269 2.1916 36.5398 1.51992 36.2835C0.879857 36.0393 0.575291 35.4565 0.708804 34.7314C0.762385 34.4404 1.05484 34.1059 2.7226 32.428C3.79575 31.3484 4.79178 30.4029 4.93602 30.327C5.1147 30.2329 5.3539 30.2018 5.68602 30.2293L6.17375 30.2697L8.15315 32.2404C9.24187 33.3243 10.1907 34.3204 10.2616 34.454C10.4596 34.8266 10.425 35.4377 10.1859 35.7921C9.91402 36.1953 9.27997 36.4627 8.80666 36.374C8.53566 36.3232 8.28805 36.141 7.65978 35.53L6.85851 34.7508L6.90516 35.965C6.98176 37.9598 7.37537 38.9846 8.49641 40.1079C9.52665 41.1402 10.6178 41.6463 12.0833 41.7714C12.9413 41.8446 13.3147 42.0365 13.5641 42.5325C13.8723 43.1452 13.6871 43.8141 13.0863 44.2585C12.8067 44.4653 12.1002 44.5274 11.291 44.4164ZM39.9208 15.7562C39.717 15.6841 35.8767 11.8522 35.7283 11.5729C35.5304 11.2003 35.5649 10.5891 35.804 10.2347C36.0759 9.83161 36.71 9.56411 37.1833 9.65282C37.4543 9.70361 37.702 9.88585 38.3302 10.4968L39.1314 11.2761L39.0849 10.0619C39.013 8.19039 38.6155 7.08373 37.6419 6.04383C36.6458 4.97999 35.3964 4.37985 33.9223 4.25718C33.0508 4.18466 32.6772 3.99422 32.4259 3.49441C32.1126 2.87158 32.303 2.2114 32.9288 1.75061C33.1479 1.58927 33.2984 1.56477 33.9849 1.57869C36.5997 1.63169 39.2527 3.19734 40.5899 5.47664C41.3935 6.84649 41.709 8.01657 41.7847 9.90788L41.8378 11.2379L42.6154 10.4777C43.5133 9.59998 43.7984 9.4871 44.4701 9.74337C45.1101 9.98757 45.4147 10.5703 45.2812 11.2954C45.2276 11.5864 44.9351 11.9209 43.2674 13.5989C42.1943 14.6785 41.2069 15.6195 41.0731 15.69C40.8361 15.8149 40.1915 15.8519 39.9208 15.7562Z" fill="url(#paint0_linear_657_20)"/>
<path d="M14.9565 22.9198C14.7634 22.8221 14.4563 22.4794 12.0655 19.693C10.5944 17.9785 9.37737 16.5756 9.36109 16.5756C9.30468 16.5756 9.23223 16.2034 9.23223 15.9136C9.23223 15.6599 9.246 15.606 9.33911 15.4954C9.54025 15.2566 9.49698 15.2614 11.4699 15.2614C12.597 15.2614 13.3796 15.2445 13.5309 15.2169C14.6462 15.0135 15.6134 14.1116 15.8947 13.0126C15.9385 12.8418 15.9743 12.6865 15.9743 12.6675C15.9743 12.6485 14.5637 12.6326 12.8396 12.6321C9.33001 12.6311 9.52064 12.6468 9.24625 12.3346C8.96273 12.012 8.99078 11.3852 9.3013 11.1047C9.52152 10.9058 9.48192 10.9081 12.6841 10.9081C14.8859 10.9081 15.6865 10.8957 15.6865 10.8617C15.6865 10.7557 15.4088 10.3428 15.1607 10.0801C14.838 9.7384 14.4055 9.46161 13.9267 9.29043L13.5693 9.16264L11.6166 9.1421C9.81207 9.12314 9.65207 9.11571 9.5083 9.04434C9.01711 8.80054 8.88896 8.09936 9.25707 7.66974C9.52288 7.35951 9.21237 7.37613 14.741 7.37613C20.2681 7.37613 19.9591 7.35963 20.2243 7.66903C20.6423 8.15688 20.4217 8.93204 19.818 9.09677C19.7137 9.12522 19.1242 9.14173 18.2053 9.14187L16.757 9.14207L16.9359 9.41929C17.1621 9.76974 17.3504 10.1399 17.5156 10.559L17.6451 10.8875L18.7727 10.9081C19.7156 10.9252 19.9205 10.9397 20.0237 10.9963C20.5903 11.3069 20.5684 12.2243 19.9867 12.5426C19.8796 12.6012 19.6946 12.6157 18.8341 12.633L17.809 12.6535L17.7588 12.9519C17.4495 14.7875 15.9556 16.4173 14.1791 16.8572C13.6565 16.9866 13.5671 16.9966 12.6995 17.0228L11.8708 17.0479L13.9819 19.3812C15.4244 20.9756 16.1082 21.7608 16.1412 21.8604C16.2106 22.0705 16.1692 22.3687 16.0401 22.5888C15.8034 22.9923 15.3647 23.1263 14.9565 22.9198Z" fill="url(#paint1_linear_657_20)" stroke="url(#paint2_linear_657_20)" stroke-width="0.7"/>
</g>
<defs>
<linearGradient id="paint0_linear_657_20" x1="23" y1="0" x2="23" y2="46" gradientUnits="userSpaceOnUse">
<stop stop-color="#5167EE"/>
<stop offset="1" stop-color="#925DEF"/>
</linearGradient>
<linearGradient id="paint1_linear_657_20" x1="14.7422" y1="7.37598" x2="14.7422" y2="23.0158" gradientUnits="userSpaceOnUse">
<stop stop-color="#5167EE"/>
<stop offset="1" stop-color="#925DEF"/>
</linearGradient>
<linearGradient id="paint2_linear_657_20" x1="14.7422" y1="7.37598" x2="14.7422" y2="23.0158" gradientUnits="userSpaceOnUse">
<stop stop-color="#5167EE"/>
<stop offset="1" stop-color="#925DEF"/>
</linearGradient>
<clipPath id="clip0_657_20">
<rect width="46" height="46" fill="white"/>
</clipPath>
</defs>
</svg>
