<svg width="48" height="48" viewBox="0 0 48 48" fill="none" xmlns="http://www.w3.org/2000/svg">
<g clip-path="url(#clip0_657_57)">
<path d="M27.5431 0.61505C24.997 0.717119 22.7279 2.94967 22.7269 5.52587C22.581 7.99035 24.4191 10.4541 26.9161 10.7713C29.7269 11.3314 32.6772 9.0604 32.8688 6.2066C33.1121 3.27901 30.5156 0.446817 27.5431 0.61505ZM27.881 2.84357C29.8215 2.82616 31.2832 5.07718 30.4682 6.83767C29.8175 8.57303 27.3799 9.24692 25.9753 7.99917C24.6326 7.01779 24.5038 4.89475 25.6904 3.73772C26.2447 3.13689 27.0665 2.81088 27.881 2.84357Z" fill="url(#paint0_linear_657_57)"/>
<path d="M37.7307 10.6566C37.6661 10.6156 37.4153 10.1361 37.1734 9.59102C36.6375 8.38345 36.7148 8.46306 35.6354 8.0071C33.9084 7.27764 33.9053 6.92804 35.6189 6.18593C36.7134 5.71192 36.6564 5.76898 37.1303 4.67128C37.8683 2.96179 38.2075 2.96179 38.9455 4.67128C39.4167 5.76264 39.3577 5.70365 40.449 6.1748C42.1687 6.91718 42.167 7.2778 40.4404 8.0071C39.3621 8.46258 39.4303 8.39344 38.9371 9.53115C38.4253 10.7116 38.179 10.9414 37.7307 10.6566ZM39.1337 7.34966L39.7158 7.09725L39.132 6.83225C38.5817 6.58246 38.5339 6.53412 38.2989 5.98942L38.0496 5.41159L37.7869 5.99018C37.5415 6.53074 37.486 6.58614 36.9422 6.83301L36.3601 7.09725L36.9454 7.35112C37.5021 7.59256 37.5431 7.63343 37.7813 8.18562L38.0319 8.76625L38.2918 8.18416C38.5375 7.63393 38.5836 7.58826 39.1337 7.34966Z" fill="url(#paint1_linear_657_57)"/>
<path d="M15.6413 18.1849C15.5334 18.1094 15.2419 17.5825 14.9935 17.0142L14.5418 15.9809L13.5798 15.5775C11.7322 14.8027 11.756 14.446 13.7103 13.6265L14.5418 13.2778L15.0044 12.2213C15.7438 10.5327 16.0624 10.5231 16.8054 12.1671L17.2938 13.2478L18.3633 13.7276C20.0339 14.4771 20.0319 14.7984 18.3515 15.5365L17.2862 16.0045L16.8359 17.0383C16.2891 18.2939 16.0815 18.4932 15.6413 18.1849ZM16.9753 14.91C17.625 14.6463 17.6248 14.6301 16.9674 14.3453C16.4767 14.1328 16.4156 14.0707 16.182 13.5475L15.9286 12.9802L15.6486 13.5408C15.4064 14.0256 15.3011 14.1336 14.8708 14.3386C14.2586 14.6304 14.2586 14.6327 14.8705 14.915C15.3089 15.1173 15.4017 15.213 15.6456 15.7139L15.9228 16.283L16.1854 15.7036C16.43 15.1635 16.4838 15.1095 16.9753 14.91Z" fill="url(#paint2_linear_657_57)"/>
<path d="M27.5236 11.6131C23.5809 11.7028 19.833 14.5182 18.8419 18.3689C18.524 19.8122 18.2358 21.4406 18.879 22.8338C19.2934 23.533 20.0947 24.021 20.8658 24.1638C25.3794 24.1292 29.8965 24.2329 34.408 24.0915C35.3058 24.1315 36.1525 23.6828 36.587 22.89C37.5696 21.1663 37.0414 19.0286 36.3307 17.3032C34.9062 13.8224 31.2967 11.4428 27.5236 11.6131ZM27.8204 13.8142C30.8581 13.7819 33.7392 15.9085 34.5862 18.829C34.8448 19.7847 35.1625 20.9237 34.6427 21.8396C30.3511 22.0517 26.0452 22.0049 21.7496 21.9026C21.2352 21.9531 20.6268 21.8743 20.6798 21.2124C20.4771 17.8925 22.954 14.6039 26.2446 13.9761C26.7608 13.859 27.2919 13.8153 27.8204 13.8142Z" fill="url(#paint3_linear_657_57)"/>
<path d="M42.3145 24.9998C40.6764 25.2567 39.2755 26.2527 37.795 26.9397C35.3111 28.2257 32.8328 29.5191 30.3497 30.8084C30.247 28.4721 28.1077 26.39 25.7423 26.4762C22.3084 26.2463 18.8644 26.0117 15.4219 26.0584C13.7149 26.4334 12.2539 27.49 10.688 28.2194C9.78403 28.6739 8.90917 29.1908 7.97859 29.5897C7.58053 28.6754 6.89149 27.4894 5.7134 27.6943C4.27225 27.9864 3.02879 28.8542 1.71492 29.4764C0.80929 29.8614 0.435388 30.9371 0.80336 31.8274C1.72288 34.35 3.16226 36.6428 4.35112 39.043C5.72398 41.5806 6.94204 44.2094 8.44259 46.6742C9.01492 47.5613 10.253 47.5146 11.0717 47.0115C12.3405 46.3112 13.826 45.8385 14.8108 44.7315C15.5376 43.8059 14.7776 42.7198 14.3829 41.8377C16.685 41.9917 18.9168 42.6775 21.1829 43.0841C22.9357 43.3862 24.903 44.0587 26.5607 43.0717C32.8286 39.935 39.0646 36.7323 45.2242 33.3874C47.2113 32.2896 47.8826 29.5727 46.8503 27.5983C46.0562 25.8806 44.1995 24.8222 42.3145 24.9998ZM42.8868 27.1424C44.8183 27.1747 45.8853 29.8971 44.4552 31.2186C39.8953 33.8567 35.18 36.2213 30.5173 38.6729C28.7321 39.5634 26.969 40.5537 25.1579 41.3578C23.308 41.5337 21.541 40.8438 19.7398 40.5412C17.9665 40.2361 16.2153 39.6395 14.4044 39.6502C14.0373 39.5959 13.5946 40.0319 13.3485 39.8994C11.9147 37.1352 10.4698 34.3861 9.06062 31.6092C11.1972 30.4102 13.3726 29.2498 15.5821 28.2537C18.963 28.274 22.3668 28.4454 25.7188 28.617C26.8119 28.5456 27.9455 29.4858 28.0723 30.6424C28.3829 32.067 27.1293 33.5391 25.6651 33.3975C23.3572 33.4363 21.0438 33.0998 18.7403 33.2811C18.0074 33.3104 17.6831 34.1606 18.0899 34.7303C18.4823 35.5595 19.5949 35.275 20.3363 35.4028C22.5467 35.4403 24.7817 35.7603 26.9804 35.4346C28.2818 35.2461 28.9852 33.9964 30.1466 33.5122C34.0304 31.3117 37.9671 29.1914 42.0118 27.3006C42.2886 27.1828 42.5867 27.1339 42.8868 27.1424ZM5.93953 30.41C8.22161 34.7495 10.5392 39.2172 12.754 43.6502C11.8572 44.1976 10.9021 44.7019 9.99421 45.119C7.58257 40.5648 5.23545 35.9996 2.92195 31.3963C3.81636 30.8685 4.72899 30.3679 5.66804 29.9237C5.75854 30.0858 5.84903 30.2479 5.93953 30.41Z" fill="url(#paint4_linear_657_57)"/>
</g>
<defs>
<linearGradient id="paint0_linear_657_57" x1="27.8017" y1="0.60791" x2="27.8017" y2="10.8567" gradientUnits="userSpaceOnUse">
<stop stop-color="#5167EE"/>
<stop offset="1" stop-color="#925DEF"/>
</linearGradient>
<linearGradient id="paint1_linear_657_57" x1="38.037" y1="3.38916" x2="38.037" y2="10.7669" gradientUnits="userSpaceOnUse">
<stop stop-color="#5167EE"/>
<stop offset="1" stop-color="#925DEF"/>
</linearGradient>
<linearGradient id="paint2_linear_657_57" x1="15.9164" y1="10.9443" x2="15.9164" y2="18.3129" gradientUnits="userSpaceOnUse">
<stop stop-color="#5167EE"/>
<stop offset="1" stop-color="#925DEF"/>
</linearGradient>
<linearGradient id="paint3_linear_657_57" x1="27.8101" y1="11.6045" x2="27.8101" y2="24.1684" gradientUnits="userSpaceOnUse">
<stop stop-color="#5167EE"/>
<stop offset="1" stop-color="#925DEF"/>
</linearGradient>
<linearGradient id="paint4_linear_657_57" x1="23.997" y1="24.9805" x2="23.997" y2="47.3699" gradientUnits="userSpaceOnUse">
<stop stop-color="#5167EE"/>
<stop offset="1" stop-color="#925DEF"/>
</linearGradient>
<clipPath id="clip0_657_57">
<rect width="48" height="48" fill="white"/>
</clipPath>
</defs>
</svg>
