<svg width="32" height="32" viewBox="0 0 32 32" fill="none" xmlns="http://www.w3.org/2000/svg">
<path d="M17.3337 8.00033C17.3337 7.6467 17.1932 7.30757 16.9431 7.05752C16.6931 6.80747 16.3539 6.66699 16.0003 6.66699C15.6467 6.66699 15.3076 6.80747 15.0575 7.05752C14.8075 7.30757 14.667 7.6467 14.667 8.00033V14.667H8.00033C7.6467 14.667 7.30757 14.8075 7.05752 15.0575C6.80747 15.3076 6.66699 15.6467 6.66699 16.0003C6.66699 16.3539 6.80747 16.6931 7.05752 16.9431C7.30757 17.1932 7.6467 17.3337 8.00033 17.3337H14.667V24.0003C14.667 24.3539 14.8075 24.6931 15.0575 24.9431C15.3076 25.1932 15.6467 25.3337 16.0003 25.3337C16.3539 25.3337 16.6931 25.1932 16.9431 24.9431C17.1932 24.6931 17.3337 24.3539 17.3337 24.0003V17.3337H24.0003C24.3539 17.3337 24.6931 17.1932 24.9431 16.9431C25.1932 16.6931 25.3337 16.3539 25.3337 16.0003C25.3337 15.6467 25.1932 15.3076 24.9431 15.0575C24.6931 14.8075 24.3539 14.667 24.0003 14.667H17.3337V8.00033Z" fill="#4D08C5"/>
</svg>
