<svg width="46" height="46" viewBox="0 0 46 46" fill="none" xmlns="http://www.w3.org/2000/svg">
<g clip-path="url(#clip0_657_392)">
<path d="M2.89832 45.885C2.63886 45.8148 2.25765 45.6712 2.05118 45.5658C1.53017 45.3 0.794358 44.5813 0.512087 44.0626C-0.0157961 43.0926 5.08366e-05 43.4343 5.08366e-05 33.0211C5.08366e-05 26.2886 0.0298756 23.3316 0.101174 22.9958C0.348141 21.8326 1.12081 20.872 2.24672 20.3283L2.92072 20.0029L13.2335 19.9786L23.5463 19.9543L23.3223 19.512C22.6882 18.2606 22.0415 16.1979 21.7305 14.4354C21.5582 13.4586 21.5356 12.9319 21.5011 9.09288C21.4588 4.37366 21.4583 4.37944 22.0359 3.78848C22.4839 3.33021 22.7523 3.23935 24.0667 3.10087C27.7196 2.71604 30.2623 1.94698 32.2173 0.635742C33.5042 -0.227361 33.9763 -0.217569 35.386 0.701449C36.7551 1.59403 38.403 2.22791 40.4534 2.65073C41.5865 2.88439 43.4546 3.14988 43.972 3.15078C44.8229 3.1522 45.7112 3.80531 45.9207 4.5834C45.9999 4.87765 46.0167 6.08254 45.9847 9.16715C45.9466 12.8399 45.9193 13.4726 45.7615 14.3404C45.0026 18.5126 43.2668 21.9363 40.4299 24.8564L39.906 25.3957L39.881 34.1591L39.856 42.9224L39.6591 43.4436C39.2676 44.4797 38.4136 45.3639 37.4155 45.7665L36.8904 45.9784L20.1302 45.9955C5.89383 46.01 3.29902 45.9936 2.89832 45.885ZM37.1639 44.1788C37.7361 43.825 38.1522 43.2702 38.2751 42.6972C38.3784 42.215 38.4226 26.7889 38.3206 26.7889C38.2917 26.7889 37.8367 27.0777 37.3096 27.4307C36.7825 27.7838 35.8705 28.3096 35.283 28.5992C33.8377 29.3116 33.6514 29.3116 32.2071 28.598C30.2237 27.6179 28.407 26.274 26.817 24.6106C26.0423 23.8002 24.9337 22.4 24.5734 21.777L24.4038 21.4838L13.7971 21.5073C3.79857 21.5295 3.17173 21.5401 2.86612 21.6923C2.44029 21.9044 2.00952 22.3327 1.76771 22.7844L1.57272 23.1487V32.9906C1.57272 42.4168 1.57979 42.8458 1.74005 43.1471C2.06325 43.7548 2.61565 44.2222 3.23468 44.4118C3.35856 44.4498 10.9445 44.474 20.0924 44.4656L36.7248 44.4504L37.1639 44.1788ZM30.1463 41.9378C29.8607 41.6522 29.8592 41.2572 30.1424 40.9276L30.3592 40.6754L32.434 40.6482L34.5089 40.621V38.9588C34.5089 37.3139 34.5112 37.2944 34.7295 37.076C35.0296 36.7759 35.5159 36.7759 35.816 37.076L36.0366 37.2967V39.5069V41.7172L35.816 41.9378L35.5955 42.1584H32.9812H30.3669L30.1463 41.9378ZM4.26873 41.3308C3.80793 41.0665 3.72052 40.4965 4.08491 40.132L4.30549 39.9114H7.26306C10.1191 39.9114 10.2288 39.9179 10.4574 40.0977C10.6289 40.2326 10.6942 40.3669 10.6942 40.5847C10.6942 41.424 10.63 41.4399 7.26126 41.4367C5.31475 41.4351 4.3931 41.4021 4.26873 41.3308ZM7.40121 38.2976C6.91096 38.0914 6.77268 37.4439 7.14038 37.0761C7.35661 36.8598 7.38997 36.8555 8.83219 36.8555C10.2538 36.8555 10.31 36.8625 10.4988 37.0635C10.7772 37.3598 10.7607 37.8402 10.4626 38.1206C10.2415 38.3286 10.1707 38.3394 8.91237 38.3585C8.18716 38.3696 7.50714 38.3421 7.40121 38.2976ZM4.05058 33.4728C3.78977 33.1412 3.80861 32.7148 4.09603 32.4445C4.32107 32.2329 4.37501 32.2258 5.9695 32.1972C7.28943 32.1736 7.67571 32.1948 7.9401 32.3052C8.47168 32.5274 8.58582 33.122 8.17565 33.5322C8.01027 33.6976 7.8703 33.7097 6.11752 33.7097H4.23684L4.05058 33.4728ZM10.1959 33.489C9.91018 33.2033 9.90873 32.8084 10.1921 32.4788L10.409 32.2266H12.2669H14.1247L14.3416 32.4788C14.625 32.8084 14.6236 33.2033 14.3379 33.489C14.1179 33.709 14.1117 33.7097 12.2668 33.7097C10.422 33.7097 10.4158 33.7089 10.1959 33.489ZM16.3581 33.5322C16.1002 33.2743 16.0497 32.9624 16.2142 32.6442C16.4293 32.2283 16.7878 32.1615 18.6188 32.1964C20.1549 32.2257 20.2135 32.2337 20.4377 32.4445C20.7456 32.734 20.7567 33.2368 20.4614 33.5142C20.2617 33.7019 20.1794 33.7097 18.3945 33.7097C16.6634 33.7097 16.5234 33.6975 16.3581 33.5322ZM22.4824 33.5016C22.261 33.2659 22.2238 32.7668 22.4095 32.5223C22.6218 32.2428 23.0018 32.1817 24.5261 32.1817C26.2659 32.1817 26.5628 32.2488 26.7442 32.6832C26.8823 33.0137 26.8418 33.2072 26.5716 33.5074C26.394 33.7047 26.3445 33.7097 24.5337 33.7097C22.71 33.7097 22.6744 33.706 22.4824 33.5016ZM28.5842 33.4728C28.3374 33.159 28.3487 32.7883 28.6147 32.4788L28.8314 32.2266L30.4882 32.1972C31.8215 32.1735 32.2091 32.1946 32.4737 32.3052C32.8463 32.4609 33.0192 32.7926 32.9328 33.1859C32.8255 33.6746 32.6715 33.7097 30.6312 33.7097H28.7705L28.5842 33.4728ZM5.61673 29.8506C5.21281 29.7523 4.81522 29.5237 4.50031 29.2087C3.96767 28.676 3.91459 28.4872 3.88017 27.0035C3.85129 25.7584 3.86533 25.6064 4.04875 25.18C4.28476 24.6313 4.86875 24.0801 5.3747 23.9285C5.5996 23.8611 6.45826 23.8228 7.74385 23.8228C9.73327 23.8228 9.7665 23.8259 10.2274 24.0556C10.7875 24.3348 11.1807 24.7862 11.376 25.3743C11.4882 25.7121 11.5127 26.0806 11.4867 27.04C11.4484 28.458 11.3351 28.7809 10.6788 29.3428C10.0787 29.8565 9.66458 29.936 7.64489 29.9255C6.67768 29.9204 5.76501 29.8867 5.61673 29.8506ZM9.75856 28.1096C9.96039 27.8747 9.97527 27.7865 9.97527 26.8247C9.97527 25.8481 9.96329 25.78 9.75469 25.5714C9.53451 25.3512 9.53063 25.3508 7.64934 25.3508H5.76458L5.57832 25.5876C5.41384 25.7967 5.39206 25.9482 5.39206 26.8829V27.9413L5.67464 28.1791L5.95722 28.417L7.74954 28.3894L9.54185 28.3618L9.75856 28.1096ZM34.717 27.1841C39.4989 24.7874 43.1078 20.0277 44.1148 14.7898C44.4346 13.1261 44.4826 12.3174 44.4834 8.57951C44.4842 5.25886 44.4718 4.965 44.3269 4.83892C44.2224 4.74799 43.7927 4.66576 43.0463 4.59382C39.5494 4.25679 36.5742 3.34025 34.5297 1.9702C34.1704 1.72943 33.8147 1.53243 33.7393 1.53243C33.6638 1.53243 33.2933 1.74087 32.9158 1.99562C30.885 3.36624 27.5965 4.34298 24.0113 4.64046C23.5344 4.68003 23.215 4.75166 23.1282 4.83851C23.0095 4.95718 22.9969 5.50958 23.0291 9.16314C23.0689 13.662 23.0852 13.852 23.607 15.8684C24.6891 20.0506 27.4693 23.8686 31.1838 26.2738C32.0879 26.8591 33.4978 27.5912 33.7285 27.5951C33.8183 27.5965 34.2631 27.4116 34.717 27.1841ZM33.3751 25.7147C33.0443 25.636 32.2685 25.1751 31.2986 24.4811C27.9492 22.0844 25.5625 18.2996 24.7907 14.1606C24.6375 13.3391 24.5985 12.6764 24.5603 10.2408C24.5163 7.44099 24.5224 7.29134 24.6958 6.89932C24.972 6.2748 25.3511 6.07568 26.6905 5.8518C28.7778 5.50288 30.722 4.88338 32.6382 3.95657C33.58 3.50108 33.8944 3.49612 34.7811 3.92279C36.8987 4.94181 38.7862 5.53857 41.0151 5.89381C42.2383 6.08876 42.5306 6.25969 42.8182 6.94814C42.9303 7.21646 42.9564 7.71108 42.9564 9.56433C42.9564 12.8709 42.7589 14.4397 42.0916 16.4346C40.8542 20.1337 38.3079 23.3025 34.9879 25.275C34.2492 25.7139 33.8403 25.8254 33.3751 25.7147ZM35.2728 23.2654C36.2554 22.58 37.8759 20.9725 38.5655 19.9992C39.9385 18.0612 40.761 16.1188 41.2092 13.7562C41.3136 13.2057 41.3673 12.2232 41.4015 10.24L41.4489 7.48779L40.9221 7.42532C39.2667 7.22904 36.4751 6.39657 34.7259 5.57758L33.7548 5.12288L32.6715 5.61411C30.7809 6.47145 28.5663 7.14132 26.8103 7.38701L26.0614 7.49179V9.81046C26.0614 12.3497 26.1791 13.6008 26.5531 15.0406C27.459 18.528 29.6761 21.5888 32.7903 23.6513L33.7228 24.2689L34.0934 24.0492C34.2972 23.9284 34.8279 23.5757 35.2728 23.2654ZM30.7507 18.9998C30.5865 18.9179 30.3439 18.7088 30.2115 18.5352L29.9706 18.2196L29.9445 15.4404L29.9183 12.6611L30.1454 12.2736C30.3689 11.8922 30.9484 11.5092 31.3021 11.5092C31.428 11.5092 31.4534 11.4137 31.4534 10.941C31.4534 10.1597 31.6617 9.60736 32.1345 9.13443C33.0102 8.25869 34.4291 8.23027 35.2954 9.07112C35.7931 9.5542 35.9794 9.99949 36.0201 10.8032C36.0546 11.4865 36.0564 11.4906 36.3275 11.5449C36.7795 11.6353 37.1815 11.9432 37.3783 12.3499C37.5535 12.7119 37.5644 12.8881 37.5644 15.3611C37.5644 17.8003 37.5517 18.0126 37.3867 18.3361C37.289 18.5277 37.0766 18.7789 36.9149 18.8943C36.6238 19.102 36.5927 19.1043 33.8349 19.1265C31.3911 19.1461 31.0124 19.1305 30.7507 18.9998ZM36.0367 15.3291V13.0371H33.7451H31.4534V15.3291V17.621H33.7451H36.0367V15.3291ZM33.2016 15.8553C33.0719 15.7153 32.9812 15.509 32.9812 15.354C32.9812 15.0135 33.4154 14.5651 33.7451 14.5651C34.0355 14.5651 34.5089 15.0101 34.5089 15.2832C34.5089 15.9983 33.673 16.3641 33.2016 15.8553ZM34.5089 11.0539C34.5089 10.3464 34.2506 9.98933 33.7348 9.98406C33.5497 9.98226 33.3749 10.0614 33.2181 10.2182C33.016 10.4203 32.9812 10.5326 32.9812 10.9821V11.5092H33.7451H34.5089V11.0539Z" fill="url(#paint0_linear_657_392)"/>
</g>
<defs>
<linearGradient id="paint0_linear_657_392" x1="23" y1="0" x2="23" y2="46" gradientUnits="userSpaceOnUse">
<stop stop-color="#5167EE"/>
<stop offset="1" stop-color="#925DEF"/>
</linearGradient>
<clipPath id="clip0_657_392">
<rect width="46" height="46" fill="white"/>
</clipPath>
</defs>
</svg>
