<svg width="46" height="46" viewBox="0 0 46 46" fill="none" xmlns="http://www.w3.org/2000/svg">
<g clip-path="url(#clip0_657_98)">
<path d="M3.08486 45.8665C1.58235 45.4618 0.419917 44.26 0.107429 42.7881C-0.0358097 42.1134 -0.0358097 17.0974 0.107429 16.4227C0.512394 14.5153 2.20329 13.2058 4.26126 13.2058C4.57482 13.2058 4.8871 13.1561 4.96704 13.0934C5.04589 13.0317 7.31913 10.1303 10.0187 6.6459C12.7182 3.16153 15.0368 0.237867 15.1709 0.148859C15.6886 -0.194512 15.8832 -0.090467 18.7595 2.06762C20.2238 3.16627 21.4866 4.0821 21.5657 4.1028C21.6448 4.12349 23.2649 3.20594 25.1659 2.06378C28.3936 0.124525 28.6455 -0.0100303 28.9729 0.0298786C29.186 0.0558552 29.4127 0.161828 29.551 0.300097C29.6761 0.425212 31.6813 3.38801 34.0071 6.88408L38.2358 13.2406L38.6861 13.3901C40.1509 13.8767 41.0919 14.8678 41.471 16.3233C41.5775 16.7322 41.605 17.4861 41.605 19.992C41.605 22.3768 41.6324 23.1819 41.7173 23.2931C41.8132 23.4186 42.086 23.4442 43.5816 23.4675C45.4931 23.4973 45.6081 23.5256 45.8739 24.0308C46.0011 24.2726 46.0143 24.8376 45.99 29.0063L45.9625 33.7089L45.6691 33.9711L45.3757 34.2333H39.8111C36.1458 34.2333 34.084 34.1998 33.7704 34.1353C33.5085 34.0814 32.9506 33.8735 32.5306 33.6733C31.117 32.9994 30.0181 31.6384 29.6452 30.0996C29.4785 29.4121 29.5028 28.1073 29.6944 27.4487C30.1093 26.023 31.1187 24.7685 32.3546 24.1427C33.5267 23.5492 33.7155 23.5204 36.7084 23.4766C39.0571 23.4423 39.4182 23.4185 39.5161 23.2916C39.6742 23.0865 39.6765 17.1177 39.5184 16.586C39.374 16.0996 38.7115 15.437 38.2252 15.2925C37.6872 15.1328 3.92378 15.1328 3.38582 15.2925C2.89956 15.437 2.23701 16.0996 2.0926 16.586C1.93328 17.1226 1.93328 42.0883 2.0926 42.6248C2.23701 43.1112 2.89956 43.7738 3.38582 43.9183C3.92378 44.0781 37.6872 44.0781 38.2252 43.9183C38.7115 43.7738 39.374 43.1112 39.5184 42.6248C39.593 42.3738 39.6282 41.4848 39.6282 39.8571C39.6282 37.8896 39.6527 37.412 39.7645 37.1957C39.9114 36.9118 40.3122 36.6595 40.6165 36.6595C40.9209 36.6595 41.3217 36.9118 41.4686 37.1957C41.6655 37.5767 41.6674 42.1328 41.4709 42.8875C41.074 44.4114 40.0164 45.4728 38.5015 45.8675C38.0357 45.9888 35.94 46.0044 20.7642 45.9991C6.25151 45.9942 3.48154 45.9734 3.08486 45.8665ZM43.9378 32.0825C43.9968 31.9723 44.0308 30.7725 44.0308 28.8046V25.7006L43.8163 25.56C43.6272 25.436 43.0348 25.4225 38.8074 25.4456C34.0298 25.4717 34.0112 25.4725 33.4967 25.6803C32.8174 25.9547 32.0971 26.6239 31.7191 27.3317C31.4587 27.8195 31.4115 28.0058 31.3791 28.6744C31.3517 29.2415 31.3818 29.5721 31.491 29.901C31.8132 30.8711 32.5394 31.646 33.4945 32.0388L34.013 32.252L38.9289 32.2542C43.6983 32.2562 43.8476 32.2511 43.9378 32.0825ZM35.7172 29.9201C34.7647 29.4486 34.8379 28.1135 35.8353 27.766C37.244 27.2752 38.0448 29.4016 36.6599 29.9558C36.2032 30.1385 36.1546 30.1367 35.7172 29.9201ZM14.3655 10.3751C15.5178 8.843 16.5637 7.5351 16.6896 7.46869C17.2109 7.1938 17.363 7.27669 21.9056 10.3108L26.2399 13.2058H27.6761H29.1123L29.2615 12.978C29.3648 12.8203 29.3861 12.6972 29.3309 12.5776C29.2406 12.3821 16.1186 2.51229 15.9489 2.51229C15.8885 2.51229 15.7544 2.58305 15.6509 2.66954C15.2866 2.97391 7.91641 12.5339 7.9146 12.7044C7.91359 12.7994 7.98036 12.9518 8.06296 13.0431C8.20185 13.1966 8.36561 13.2072 10.2417 13.1849L12.2703 13.1608L14.3655 10.3751ZM21.4279 13.0334C21.7703 12.655 21.6313 12.5136 19.535 11.1074C18.0288 10.097 17.5012 9.78687 17.3632 9.8307C17.1388 9.90193 15.1903 12.4873 15.1903 12.7137C15.1903 12.8036 15.2572 12.951 15.339 13.0414C15.4772 13.1941 15.6921 13.2058 18.3798 13.2058C21.1164 13.2058 21.2804 13.1965 21.4279 13.0334ZM35.2725 13.0565C35.3608 12.9681 35.4073 12.8122 35.3862 12.6746C35.3529 12.4564 29.2194 3.15258 28.8201 2.71448C28.7188 2.60327 28.5446 2.51229 28.433 2.51229C28.3214 2.51229 27.2144 3.12253 25.973 3.86838L23.7158 5.22448L23.7432 5.52454C23.769 5.80743 24.0353 6.0235 28.3976 9.30104C30.9425 11.2131 33.1655 12.8738 33.3376 12.9916C33.6046 13.1744 33.7584 13.2058 34.3868 13.2058C34.9534 13.2058 35.1577 13.1713 35.2725 13.0565ZM18.4247 40.1046C17.7389 39.8832 17.6161 39.6289 17.6161 38.4302C17.6161 37.2108 17.604 37.1987 16.3876 37.1987C15.2111 37.1987 15.2153 37.194 15.1756 38.5317L15.1454 39.5502L14.852 39.8122C14.6323 40.0083 14.4689 40.0742 14.202 40.0742C13.9351 40.0742 13.7717 40.0083 13.552 39.8122L13.2586 39.5502L13.2284 38.5317C13.1885 37.1887 13.1978 37.1987 11.9824 37.1987C10.9554 37.1987 10.64 37.0997 10.4328 36.7125C10.2785 36.4243 10.2733 36.0059 10.4205 35.7308C10.6358 35.3285 10.9624 35.2217 11.9782 35.2217C12.7729 35.2217 12.939 35.1966 13.065 35.0574C13.1993 34.909 13.2137 34.4478 13.2137 30.2999V25.7066L13.014 25.5668C12.8635 25.4613 12.5776 25.4269 11.8529 25.4269C10.9524 25.4269 10.8741 25.4123 10.6181 25.1968C10.2726 24.9061 10.1802 24.4753 10.3752 24.0644C10.6046 23.5808 10.8058 23.5049 11.9558 23.4683C12.7717 23.4423 13.0127 23.4049 13.1014 23.2907C13.1748 23.1961 13.2137 22.8219 13.2137 22.211C13.2137 21.1985 13.3208 20.8714 13.7227 20.6563C13.9939 20.5111 14.415 20.5137 14.6925 20.6623C15.0602 20.8591 15.1903 21.2697 15.1903 22.2338C15.1903 23.4761 15.1642 23.4499 16.4032 23.4499C17.6462 23.4499 17.6161 23.4812 17.6161 22.1892C17.6161 20.9663 17.8697 20.5444 18.6044 20.5444C19.3521 20.5444 19.5927 20.9854 19.5927 22.3554C19.5927 22.8999 19.618 23.4112 19.6489 23.4917C19.6798 23.5722 19.963 23.755 20.2782 23.898C21.0382 24.2426 21.7569 24.9642 22.1346 25.7617C22.4075 26.3378 22.4228 26.4258 22.4217 27.4038C22.4205 28.3443 22.3979 28.4856 22.1702 28.9751C21.8688 29.6229 21.9021 29.8189 22.3656 30.1257C23.1179 30.6236 23.7477 31.6804 23.9231 32.739C24.1812 34.2968 23.2991 36.0142 21.8726 36.7311C21.3386 36.9995 20.6011 37.1987 20.1413 37.1987C19.6898 37.1987 19.5927 37.4201 19.5927 38.4499C19.5927 39.1503 19.5566 39.4337 19.4428 39.6265C19.2402 39.9695 18.7376 40.2056 18.4247 40.1046ZM20.831 35.0824C22.277 34.4792 22.4063 32.2893 21.0386 31.5669C20.6501 31.3617 20.5929 31.3577 18.0095 31.3577C15.4981 31.3577 15.372 31.3657 15.2833 31.5315C15.2292 31.6326 15.1903 32.3723 15.1903 33.2992C15.1903 34.6562 15.2124 34.9175 15.339 35.0574C15.4763 35.2091 15.68 35.2217 17.9923 35.2217C20.0516 35.2217 20.5564 35.1969 20.831 35.0824ZM19.64 29.0654C20.2257 28.7031 20.5092 28.1612 20.5092 27.4038C20.5092 26.6465 20.2257 26.1045 19.64 25.7422L19.203 25.4718L17.418 25.4412C15.8915 25.415 15.6009 25.4315 15.4116 25.5556L15.1903 25.7006V27.4008C15.1903 29.061 15.195 29.1044 15.3924 29.2462C15.5658 29.3707 15.8512 29.3874 17.3988 29.3636L19.203 29.3358L19.64 29.0654Z" fill="url(#paint0_linear_657_98)"/>
</g>
<defs>
<linearGradient id="paint0_linear_657_98" x1="23" y1="0" x2="23" y2="46" gradientUnits="userSpaceOnUse">
<stop stop-color="#5167EE"/>
<stop offset="1" stop-color="#925DEF"/>
</linearGradient>
<clipPath id="clip0_657_98">
<rect width="46" height="46" fill="white"/>
</clipPath>
</defs>
</svg>
