<svg width="26" height="27" viewBox="0 0 26 27" fill="none" xmlns="http://www.w3.org/2000/svg">
<mask id="mask0_607_510" style="mask-type:luminance" maskUnits="userSpaceOnUse" x="0" y="9" width="26" height="18">
<path d="M0 9.94189H25.0391V26.2588H0V9.94189Z" fill="white"/>
</mask>
<g mask="url(#mask0_607_510)">
<path d="M16.299 20.0032C11.627 23.1535 5.28509 21.9203 2.1348 17.2483C0.631491 15.0198 0.129237 12.4108 0.520007 9.94897C-0.514383 13.4624 -0.0316679 17.3931 2.17618 20.6664C6.10801 26.4969 14.0211 28.037 19.8516 24.1052C22.5065 22.3145 24.2673 19.6987 25.0316 16.83C18.2897 16.7415 10.8708 16.7725 10.8708 16.7725L16.299 20.0032Z" fill="#4D08C5"/>
</g>
<mask id="mask1_607_510" style="mask-type:luminance" maskUnits="userSpaceOnUse" x="0" y="0" width="26" height="17">
<path d="M0.842773 0H25.8187V16.3399H0.842773V0Z" fill="white"/>
</mask>
<g mask="url(#mask1_607_510)">
<path d="M9.57727 6.2798C14.2493 3.12951 20.5901 4.36273 23.7415 9.03472C25.2448 11.2633 25.7471 13.8722 25.3563 16.3341C26.3895 12.8206 25.908 8.8899 23.7001 5.61664C19.7683 -0.21387 11.8552 -1.75281 6.02472 2.17787C3.36979 3.96851 1.60903 6.58437 0.844727 9.45307C7.58664 9.54157 15.0055 9.51054 15.0055 9.51054L9.57727 6.2798Z" fill="#1A54CF"/>
</g>
</svg>
